<svg width="124" height="124" viewBox="0 0 124 124" fill="none" xmlns="http://www.w3.org/2000/svg">
<path d="M107.6 36.9L116.1 28.4L95.6 7.9L87.1 16.4C83.7 14.5 80.2 13.1 76.5 12V0H47.5V12C43.8 13.1 40.3 14.5 36.9 16.4L28.4 7.9L7.9 28.4L16.4 36.9C14.5 40.3 13.1 43.8 12 47.5H0V76.5H12C13.1 80.2 14.5 83.7 16.4 87.1L7.9 95.6L28.4 116.1L36.9 107.6C40.3 109.5 43.8 110.9 47.5 112V124H76.5V112C80.2 110.9 83.7 109.5 87.1 107.6L95.6 116.1L116.1 95.6L107.6 87.1C109.5 83.7 110.9 80.2 112 76.5H124V47.5H112C110.9 43.8 109.4 40.3 107.6 36.9ZM120 72.5H108.9L108.5 74C107.4 78.3 105.7 82.5 103.4 86.4L102.6 87.7L110.5 95.6L95.7 110.4L87.8 102.5L86.5 103.3C82.6 105.6 78.4 107.3 74.1 108.4L72.6 108.8V120H51.6V108.9L50.1 108.5C45.8 107.4 41.6 105.7 37.7 103.4L36.4 102.6L28.5 110.5L13.6 95.6L21.5 87.7L20.7 86.4C18.4 82.5 16.7 78.3 15.6 74L15.2 72.5H4V51.5H15.1L15.5 50C16.6 45.7 18.3 41.5 20.6 37.6L21.4 36.3L13.5 28.4L28.3 13.6L36.2 21.5L37.5 20.7C41.4 18.4 45.6 16.7 49.9 15.6L51.4 15.2V4H72.4V15.1L73.9 15.5C78.2 16.6 82.4 18.3 86.3 20.6L87.6 21.4L95.5 13.5L110.3 28.3L102.4 36.2L103.2 37.5C105.5 41.4 107.2 45.6 108.3 49.9L108.7 51.4H120V72.5Z" fill="white"/>
<path d="M62 30C44.4 30 30 44.4 30 62C30 79.6 44.4 94 62 94C79.6 94 94 79.6 94 62C94 44.4 79.6 30 62 30ZM62 90C46.6 90 34 77.4 34 62C34 46.6 46.6 34 62 34C77.4 34 90 46.6 90 62C90 77.4 77.4 90 62 90Z" fill="white"/>
<path d="M61.8992 59.5C60.1992 58.7 58.7992 58 58.7992 55.9C58.7992 54.2 60.2992 52.7 61.9992 52.7C62.9992 52.7 64.1992 53.2 64.7992 54.4L68.4992 52.5999C67.6992 50.6999 65.8992 49.4 63.9992 48.9V47.2H59.9992V48.9C56.8992 49.8 54.6992 52.4999 54.6992 56.0999C54.6992 60.3999 57.4992 61.9999 61.1992 63.5999C63.0992 64.3999 65.2992 65.4 65.2992 68C65.2992 69.7999 63.6992 71.5 61.8992 71.5C60.0992 71.5 58.9992 70.6 58.2992 69.3C57.0992 69.7 55.8992 70.1 54.7992 70.4C55.3992 72.7 57.3992 74.7 60.0992 75.3V77.3H64.0992V75.3C67.0992 74.4 69.3992 71.4999 69.3992 68.0999C69.2992 63.4999 67.0992 61.8 61.8992 59.5Z" fill="white"/>
</svg>
