<svg width="125" height="125" viewBox="0 0 125 125" fill="none" xmlns="http://www.w3.org/2000/svg">
<path d="M62.0215 111.57C89.3215 111.57 111.521 89.3703 111.521 62.0703C111.521 34.7703 89.3215 12.5703 62.0215 12.5703C34.7215 12.5703 12.5215 34.7703 12.5215 62.0703C12.5215 89.3703 34.7215 111.57 62.0215 111.57ZM62.0215 16.5703C87.1215 16.5703 107.521 36.9703 107.521 62.0703C107.521 87.1703 87.1215 107.57 62.0215 107.57C36.9215 107.57 16.5215 87.1703 16.5215 62.0703C16.5215 36.9703 36.9215 16.5703 62.0215 16.5703Z" fill="white"/>
<path d="M106.421 114.47V99.6704L103.021 103.07C85.1207 120.97 58.0207 125.17 35.5207 113.67L33.7207 117.27C42.7207 121.87 52.4207 124.17 62.0207 124.17C76.6207 124.17 90.9207 118.97 102.421 109.17V114.57H106.421V114.47Z" fill="white"/>
<path d="M9.62079 102.47V106.47H24.4208L21.0208 103.07C3.22079 85.3704 -1.07921 58.3704 10.2208 35.9704L6.62079 34.1704C-4.67921 56.6704 -1.27921 83.5704 15.0208 102.47H9.62079Z" fill="white"/>
<path d="M113.721 88.3703L117.321 90.1703C128.821 67.5703 125.421 40.5703 109.021 21.5703H119.421V17.5703H99.6211L103.021 21.0703C120.821 38.8703 125.121 65.9703 113.721 88.3703Z" fill="white"/>
<path d="M88.3211 10.3703L90.1211 6.77031C67.5211 -4.72969 40.5211 -1.32969 21.6211 15.0703V9.67031H17.6211V24.4703L21.0211 21.0703C38.8211 3.27032 65.9211 -1.02969 88.3211 10.3703Z" fill="white"/>
<path d="M64.0215 22.4702H60.0215V25.6702H64.0215V22.4702Z" fill="white"/>
<path d="M101.62 60.0703H98.4199V64.0703H101.62V60.0703Z" fill="white"/>
<path d="M64.0215 98.4702H60.0215V101.67H64.0215V98.4702Z" fill="white"/>
<path d="M25.6199 60.0703H22.4199V64.0703H25.6199V60.0703Z" fill="white"/>
<path d="M60.0211 69.9703H64.0211V64.0703H82.6211V60.0703H64.0211V31.5703H60.0211V60.0703H54.1211V64.0703H60.0211V69.9703Z" fill="white"/>
</svg>
