<?xml version="1.0" encoding="utf-8"?><svg width="124" height="124" fill="none" xmlns="http://www.w3.org/2000/svg" viewBox="0 0 124 124"><path d="M62 0H47.5v12c-3.7 1.1-7.2 2.5-10.6 4.4l-8.5-8.5L7.9 28.4l8.5 8.5c-1.9 3.4-3.3 6.9-4.4 10.6H0v29h12c1.1 3.7 2.5 7.2 4.4 10.6l-8.5 8.5 20.5 20.5 8.5-8.5c3.4 1.9 6.9 3.3 10.6 4.4v12H62c34.2 0 62-27.8 62-62S96.2 0 62 0zm0 120H51.5v-11.1l-1.5-.4c-4.3-1.1-8.5-2.8-12.4-5.1l-1.3-.8-7.9 7.9-14.8-14.9 7.9-7.9-.8-1.3c-2.3-3.9-4-8.1-5.1-12.4l-.4-1.5H4v-21h11.1l.4-1.5c1.1-4.3 2.8-8.5 5.1-12.4l.8-1.3-7.9-7.9 14.8-14.8 7.9 7.9 1.3-.8c3.9-2.3 8.1-4 12.4-5.1l1.5-.4V4H62c32 0 58 26 58 58s-26 58-58 58z" fill="#fff"/><path d="M62 90c-15.4 0-28-12.6-28-28s12.6-28 28-28v-4c-17.6 0-32 14.4-32 32s14.4 32 32 32v-4z" fill="#fff"/><path d="M73.25 75H54.129v-3.262l9.473-10.332c1.367-1.523 2.337-2.793 2.91-3.808.586-1.029.879-2.058.879-3.086 0-1.354-.385-2.448-1.153-3.282-.755-.833-1.777-1.25-3.066-1.25-1.537 0-2.728.47-3.574 1.407-.847.937-1.27 2.22-1.27 3.847h-4.746c0-1.731.39-3.287 1.172-4.668.794-1.393 1.92-2.474 3.379-3.242 1.471-.768 3.164-1.152 5.078-1.152 2.76 0 4.935.697 6.523 2.09 1.602 1.38 2.403 3.294 2.403 5.742 0 1.42-.404 2.91-1.211 4.473-.794 1.549-2.103 3.313-3.926 5.293l-6.953 7.44H73.25V75zm19.668-10.137h3.535v3.809h-3.535V75h-4.746v-6.328H75.887l-.137-2.89 12.266-19.22h4.902v18.301zm-12.188 0h7.442V52.988l-.352.625-7.09 11.25z" fill="#fff"/></svg>