<?xml version="1.0" encoding="utf-8"?><svg width="94" height="124" fill="none" xmlns="http://www.w3.org/2000/svg" viewBox="0 0 94 124"><path d="M0 0v124h94V21.2L72.8 0H0zm74 6.8L87.2 20H74V6.8zM4 120V4h66v20h20v96H4z" fill="#fff"/><path d="M82 75H12v4h70v-4zM82 85H12v4h70v-4zM82 95H57v4h25v-4zM47 61.6c8.7 0 17.4-1.5 25.7-4.4l1.3-.5v-7.3l-3.1-.9v-2.9c0-9-5-17.2-12.9-21.2v-.2c0-2.3-1.9-4.2-4.2-4.2H49v-.6h-4v.6h-4.8c-2.3 0-4.2 1.9-4.2 4.2v.2c-7.9 4.1-12.9 12.3-12.9 21.2v2.9l-3.1 1v7.3l1.3.5c8.3 2.8 17 4.3 25.7 4.3zm-23-9.1l3.1-.9v-5.9c0-6.7 3.4-13 8.9-16.6v6.1h4v-11c0-.1.1-.2.2-.2H45v17.3h4V24h4.8c.1 0 .2.1.2.2v11h4v-6.1c5.5 3.7 8.9 9.9 8.9 16.6v5.9l3.1.9v1.4a73.81 73.81 0 01-46 0v-1.4z" fill="#fff"/><path d="M62.3 48.1H31.6v4h30.7v-4z" fill="#fff"/></svg>