<?xml version="1.0" encoding="utf-8"?><svg width="124" height="124" fill="none" xmlns="http://www.w3.org/2000/svg" viewBox="0 0 124 124"><path d="M107.6 36.9l8.5-8.5L95.6 7.9l-8.5 8.5c-3.4-1.9-6.9-3.3-10.6-4.4V0h-29v12c-3.7 1.1-7.2 2.5-10.6 4.4l-8.5-8.5L7.9 28.4l8.5 8.5c-1.9 3.4-3.3 6.9-4.4 10.6H0v29h12c1.1 3.7 2.5 7.2 4.4 10.6l-8.5 8.5 20.5 20.5 8.5-8.5c3.4 1.9 6.9 3.3 10.6 4.4v12h29v-12c3.7-1.1 7.2-2.5 10.6-4.4l8.5 8.5 20.5-20.5-8.5-8.5c1.9-3.4 3.3-6.9 4.4-10.6h12v-29h-12c-1.1-3.7-2.6-7.2-4.4-10.6zM120 72.5h-11.1l-.4 1.5c-1.1 4.3-2.8 8.5-5.1 12.4l-.8 1.3 7.9 7.9-14.8 14.8-7.9-7.9-1.3.8c-3.9 2.3-8.1 4-12.4 5.1l-1.5.4V120h-21v-11.1l-1.5-.4c-4.3-1.1-8.5-2.8-12.4-5.1l-1.3-.8-7.9 7.9-14.9-14.9 7.9-7.9-.8-1.3c-2.3-3.9-4-8.1-5.1-12.4l-.4-1.5H4v-21h11.1l.4-1.5c1.1-4.3 2.8-8.5 5.1-12.4l.8-1.3-7.9-7.9 14.8-14.8 7.9 7.9 1.3-.8c3.9-2.3 8.1-4 12.4-5.1l1.5-.4V4h21v11.1l1.5.4c4.3 1.1 8.5 2.8 12.4 5.1l1.3.8 7.9-7.9 14.8 14.8-7.9 7.9.8 1.3c2.3 3.9 4 8.1 5.1 12.4l.4 1.5H120v21.1z" fill="#fff"/><path d="M62 30c-17.6 0-32 14.4-32 32s14.4 32 32 32 32-14.4 32-32-14.4-32-32-32zm0 60c-15.4 0-28-12.6-28-28s12.6-28 28-28 28 12.6 28 28-12.6 28-28 28z" fill="#fff"/><path d="M61.9 59.5c-1.7-.8-3.1-1.5-3.1-3.6 0-1.7 1.5-3.2 3.2-3.2 1 0 2.2.5 2.8 1.7l3.7-1.8c-.8-1.9-2.6-3.2-4.5-3.7v-1.7h-4v1.7c-3.1.9-5.3 3.6-5.3 7.2 0 4.3 2.8 5.9 6.5 7.5 1.9.8 4.1 1.8 4.1 4.4 0 1.8-1.6 3.5-3.4 3.5-1.8 0-2.9-.9-3.6-2.2-1.2.4-2.4.8-3.5 1.1.6 2.3 2.6 4.3 5.3 4.9v2h4v-2c3-.9 5.3-3.8 5.3-7.2-.1-4.6-2.3-6.3-7.5-8.6z" fill="#fff"/></svg>