<?xml version="1.0" encoding="utf-8"?><svg width="125" height="125" fill="none" xmlns="http://www.w3.org/2000/svg" viewBox="0 0 125 125"><path d="M62.022 111.57c27.3 0 49.499-22.2 49.499-49.5s-22.2-49.5-49.5-49.5-49.5 22.2-49.5 49.5 22.2 49.5 49.5 49.5zm0-95c25.1 0 45.499 20.4 45.499 45.5s-20.4 45.5-45.5 45.5-45.5-20.4-45.5-45.5 20.4-45.5 45.5-45.5z" fill="#fff"/><path d="M106.421 114.47v-14.8l-3.4 3.4c-17.9 17.9-45 22.1-67.5 10.6l-1.8 3.6c9 4.6 18.7 6.9 28.3 6.9 14.6 0 28.9-5.2 40.4-15v5.4h4v-.1zM9.62 102.47v4h14.8l-3.4-3.4c-17.8-17.7-22.1-44.7-10.8-67.1l-3.6-1.8c-11.3 22.5-7.9 49.4 8.4 68.3h-5.4zM113.721 88.37l3.6 1.8c11.5-22.6 8.1-49.6-8.3-68.6h10.4v-4h-19.8l3.4 3.5c17.8 17.8 22.1 44.9 10.7 67.3zM88.321 10.37l1.8-3.6c-22.6-11.5-49.6-8.1-68.5 8.3v-5.4h-4v14.8l3.4-3.4c17.8-17.8 44.9-22.1 67.3-10.7zM64.022 22.47h-4v3.2h4v-3.2zM101.62 60.07h-3.2v4h3.2v-4zM64.022 98.47h-4v3.2h4v-3.2zM25.62 60.07h-3.2v4h3.2v-4zM60.021 69.97h4v-5.9h18.6v-4h-18.6v-28.5h-4v28.5h-5.9v4h5.9v5.9z" fill="#fff"/></svg>