<?xml version="1.0" encoding="utf-8"?><svg xmlns="http://www.w3.org/2000/svg" xmlns:xlink="http://www.w3.org/1999/xlink"><symbol viewBox="0 0 512.021 512.021" id="call" xmlns="http://www.w3.org/2000/svg"><path d="M367.988 512.021c-16.528 0-32.916-2.922-48.941-8.744-70.598-25.646-136.128-67.416-189.508-120.795S34.389 263.572 8.744 192.974c-8.241-22.688-10.673-46.108-7.226-69.612 3.229-22.016 11.757-43.389 24.663-61.809 12.963-18.501 30.245-33.889 49.977-44.5C97.2 5.738 120.167 0 144.423 0a16.002 16.002 0 0115.645 12.647l25.114 117.199a16.004 16.004 0 01-4.331 14.667l-42.913 42.912c40.482 80.486 106.17 146.174 186.656 186.656l42.912-42.913a16.01 16.01 0 0114.667-4.331l117.199 25.114a16 16 0 0112.647 15.645c0 24.256-5.738 47.224-17.054 68.266-10.611 19.732-25.999 37.014-44.5 49.977-18.419 12.906-39.792 21.434-61.809 24.663a142.318 142.318 0 01-20.668 1.519zM131.639 32.7c-31.995 3.532-60.393 20.302-79.251 47.217-21.206 30.265-26.151 67.49-13.567 102.132C88.125 317.775 194.246 423.896 329.972 473.2c34.641 12.584 71.866 7.64 102.132-13.567 26.915-18.858 43.685-47.256 47.217-79.251l-95.341-20.43-44.816 44.816a16 16 0 01-18.117 3.168c-95.19-44.72-172.242-121.772-216.962-216.962a16 16 0 013.168-18.117l44.816-44.816z"/></symbol><symbol fill="none" viewBox="0 0 94 124" id="guarante1" xmlns="http://www.w3.org/2000/svg"><path d="M0 124h94V21.2L72.8 0H0v124zM74 6.8L87.2 20H74V6.8zM4 4h66v20h20v96H4V4z" fill="#fff"/><path d="M82 40H12v4h70v-4zM82 50H12v4h70v-4zM82 60H62v4h20v-4zM62 20H32v4h30v-4zM63 75c-6.8 0-12.6 4-15.4 9.8H22.3l-7.1 5.7 6.8 8.8h6.8l1.7-1.7 1.7 1.7h6.7l1.7-1.7 1.7 1.7h5.5c2.7 5.8 8.6 9.8 15.4 9.8 9.4 0 17-7.6 17-17S72.4 75 63 75zM43.8 95.3L40.5 92l-3.3 3.3h-3.3L30.6 92l-3.3 3.3H24l-3.2-4.2 2.9-2.3h22.6c-.2 1-.3 2.1-.3 3.2s.1 2.2.3 3.2h-2.5v.1zM63 105c-7.2 0-13-5.8-13-13s5.8-13 13-13 13 5.8 13 13-5.8 13-13 13z" fill="#fff"/><path d="M68.2 95a3 3 0 100-6 3 3 0 000 6z" fill="#fff"/></symbol><symbol fill="none" viewBox="0 0 124 124" id="guarante2" xmlns="http://www.w3.org/2000/svg"><path d="M62 0H47.5v12c-3.7 1.1-7.2 2.5-10.6 4.4l-8.5-8.5L7.9 28.4l8.5 8.5c-1.9 3.4-3.3 6.9-4.4 10.6H0v29h12c1.1 3.7 2.5 7.2 4.4 10.6l-8.5 8.5 20.5 20.5 8.5-8.5c3.4 1.9 6.9 3.3 10.6 4.4v12H62c34.2 0 62-27.8 62-62S96.2 0 62 0zm0 120H51.5v-11.1l-1.5-.4c-4.3-1.1-8.5-2.8-12.4-5.1l-1.3-.8-7.9 7.9-14.8-14.9 7.9-7.9-.8-1.3c-2.3-3.9-4-8.1-5.1-12.4l-.4-1.5H4v-21h11.1l.4-1.5c1.1-4.3 2.8-8.5 5.1-12.4l.8-1.3-7.9-7.9 14.8-14.8 7.9 7.9 1.3-.8c3.9-2.3 8.1-4 12.4-5.1l1.5-.4V4H62c32 0 58 26 58 58s-26 58-58 58z" fill="#fff"/><path d="M62 90c-15.4 0-28-12.6-28-28s12.6-28 28-28v-4c-17.6 0-32 14.4-32 32s14.4 32 32 32v-4z" fill="#fff"/><path d="M73.25 75H54.129v-3.262l9.473-10.332c1.367-1.523 2.337-2.793 2.91-3.808.586-1.029.879-2.058.879-3.086 0-1.354-.385-2.448-1.153-3.282-.755-.833-1.777-1.25-3.066-1.25-1.537 0-2.728.47-3.574 1.407-.847.937-1.27 2.22-1.27 3.847h-4.746c0-1.731.39-3.287 1.172-4.668.794-1.393 1.92-2.474 3.379-3.242 1.471-.768 3.164-1.152 5.078-1.152 2.76 0 4.935.697 6.523 2.09 1.602 1.38 2.403 3.294 2.403 5.742 0 1.42-.404 2.91-1.211 4.473-.794 1.549-2.103 3.313-3.926 5.293l-6.953 7.44H73.25V75zm19.668-10.137h3.535v3.809h-3.535V75h-4.746v-6.328H75.887l-.137-2.89 12.266-19.22h4.902v18.301zm-12.188 0h7.442V52.988l-.352.625-7.09 11.25z" fill="#fff"/></symbol><symbol fill="none" viewBox="0 0 125 125" id="guarante3" xmlns="http://www.w3.org/2000/svg"><path d="M62.022 111.57c27.3 0 49.499-22.2 49.499-49.5s-22.2-49.5-49.5-49.5-49.5 22.2-49.5 49.5 22.2 49.5 49.5 49.5zm0-95c25.1 0 45.499 20.4 45.499 45.5s-20.4 45.5-45.5 45.5-45.5-20.4-45.5-45.5 20.4-45.5 45.5-45.5z" fill="#fff"/><path d="M106.421 114.47v-14.8l-3.4 3.4c-17.9 17.9-45 22.1-67.5 10.6l-1.8 3.6c9 4.6 18.7 6.9 28.3 6.9 14.6 0 28.9-5.2 40.4-15v5.4h4v-.1zM9.62 102.47v4h14.8l-3.4-3.4c-17.8-17.7-22.1-44.7-10.8-67.1l-3.6-1.8c-11.3 22.5-7.9 49.4 8.4 68.3h-5.4zM113.721 88.37l3.6 1.8c11.5-22.6 8.1-49.6-8.3-68.6h10.4v-4h-19.8l3.4 3.5c17.8 17.8 22.1 44.9 10.7 67.3zM88.321 10.37l1.8-3.6c-22.6-11.5-49.6-8.1-68.5 8.3v-5.4h-4v14.8l3.4-3.4c17.8-17.8 44.9-22.1 67.3-10.7zM64.022 22.47h-4v3.2h4v-3.2zM101.62 60.07h-3.2v4h3.2v-4zM64.022 98.47h-4v3.2h4v-3.2zM25.62 60.07h-3.2v4h3.2v-4zM60.021 69.97h4v-5.9h18.6v-4h-18.6v-28.5h-4v28.5h-5.9v4h5.9v5.9z" fill="#fff"/></symbol><symbol fill="none" viewBox="0 0 124 124" id="guarante4" xmlns="http://www.w3.org/2000/svg"><path d="M107.6 36.9l8.5-8.5L95.6 7.9l-8.5 8.5c-3.4-1.9-6.9-3.3-10.6-4.4V0h-29v12c-3.7 1.1-7.2 2.5-10.6 4.4l-8.5-8.5L7.9 28.4l8.5 8.5c-1.9 3.4-3.3 6.9-4.4 10.6H0v29h12c1.1 3.7 2.5 7.2 4.4 10.6l-8.5 8.5 20.5 20.5 8.5-8.5c3.4 1.9 6.9 3.3 10.6 4.4v12h29v-12c3.7-1.1 7.2-2.5 10.6-4.4l8.5 8.5 20.5-20.5-8.5-8.5c1.9-3.4 3.3-6.9 4.4-10.6h12v-29h-12c-1.1-3.7-2.6-7.2-4.4-10.6zM120 72.5h-11.1l-.4 1.5c-1.1 4.3-2.8 8.5-5.1 12.4l-.8 1.3 7.9 7.9-14.8 14.8-7.9-7.9-1.3.8c-3.9 2.3-8.1 4-12.4 5.1l-1.5.4V120h-21v-11.1l-1.5-.4c-4.3-1.1-8.5-2.8-12.4-5.1l-1.3-.8-7.9 7.9-14.9-14.9 7.9-7.9-.8-1.3c-2.3-3.9-4-8.1-5.1-12.4l-.4-1.5H4v-21h11.1l.4-1.5c1.1-4.3 2.8-8.5 5.1-12.4l.8-1.3-7.9-7.9 14.8-14.8 7.9 7.9 1.3-.8c3.9-2.3 8.1-4 12.4-5.1l1.5-.4V4h21v11.1l1.5.4c4.3 1.1 8.5 2.8 12.4 5.1l1.3.8 7.9-7.9 14.8 14.8-7.9 7.9.8 1.3c2.3 3.9 4 8.1 5.1 12.4l.4 1.5H120v21.1z" fill="#fff"/><path d="M62 30c-17.6 0-32 14.4-32 32s14.4 32 32 32 32-14.4 32-32-14.4-32-32-32zm0 60c-15.4 0-28-12.6-28-28s12.6-28 28-28 28 12.6 28 28-12.6 28-28 28z" fill="#fff"/><path d="M61.9 59.5c-1.7-.8-3.1-1.5-3.1-3.6 0-1.7 1.5-3.2 3.2-3.2 1 0 2.2.5 2.8 1.7l3.7-1.8c-.8-1.9-2.6-3.2-4.5-3.7v-1.7h-4v1.7c-3.1.9-5.3 3.6-5.3 7.2 0 4.3 2.8 5.9 6.5 7.5 1.9.8 4.1 1.8 4.1 4.4 0 1.8-1.6 3.5-3.4 3.5-1.8 0-2.9-.9-3.6-2.2-1.2.4-2.4.8-3.5 1.1.6 2.3 2.6 4.3 5.3 4.9v2h4v-2c3-.9 5.3-3.8 5.3-7.2-.1-4.6-2.3-6.3-7.5-8.6z" fill="#fff"/></symbol><symbol fill="none" viewBox="0 0 94 124" id="guarante5" xmlns="http://www.w3.org/2000/svg"><path d="M0 0v124h94V21.2L72.8 0H0zm74 6.8L87.2 20H74V6.8zM4 120V4h66v20h20v96H4z" fill="#fff"/><path d="M82 75H12v4h70v-4zM82 85H12v4h70v-4zM82 95H57v4h25v-4zM47 61.6c8.7 0 17.4-1.5 25.7-4.4l1.3-.5v-7.3l-3.1-.9v-2.9c0-9-5-17.2-12.9-21.2v-.2c0-2.3-1.9-4.2-4.2-4.2H49v-.6h-4v.6h-4.8c-2.3 0-4.2 1.9-4.2 4.2v.2c-7.9 4.1-12.9 12.3-12.9 21.2v2.9l-3.1 1v7.3l1.3.5c8.3 2.8 17 4.3 25.7 4.3zm-23-9.1l3.1-.9v-5.9c0-6.7 3.4-13 8.9-16.6v6.1h4v-11c0-.1.1-.2.2-.2H45v17.3h4V24h4.8c.1 0 .2.1.2.2v11h4v-6.1c5.5 3.7 8.9 9.9 8.9 16.6v5.9l3.1.9v1.4a73.81 73.81 0 01-46 0v-1.4z" fill="#fff"/><path d="M62.3 48.1H31.6v4h30.7v-4z" fill="#fff"/></symbol><symbol viewBox="0 0 512 512" id="letter" xmlns="http://www.w3.org/2000/svg"><path d="M503.22 186.828l-25.041-25.041c-11.697-11.698-30.729-11.696-42.427 0l-52.745 52.745V45c0-24.813-20.187-45-45-45h-293c-24.813 0-45 20.187-45 45v422c0 24.813 20.187 45 45 45h293c24.813 0 45-20.187 45-45V347.967L503.22 229.255c11.697-11.697 11.697-30.73 0-42.427zM323.821 364.251l-45.122 21.058 21.037-45.078 111.975-111.975 24.757 24.756zM353.007 467a15.02 15.02 0 01-15 15h-293a15.02 15.02 0 01-15-15V45a15.02 15.02 0 0115-15h293a15.02 15.02 0 0115 15v199.532l-79.34 80.616-39.598 84.854a15 15 0 0019.936 19.936l84.854-39.599c3.111-1.452 3.623-2.354 14.148-12.748zm104.806-235.067l-24.89-24.89L456.966 183l25.033 25.049zM80.007 127h224c8.284 0 15-6.716 15-15s-6.716-15-15-15h-224c-8.284 0-15 6.716-15 15s6.716 15 15 15zm0 80h176c8.284 0 15-6.716 15-15s-6.716-15-15-15h-176c-8.284 0-15 6.716-15 15s6.716 15 15 15zm128 50h-128c-8.284 0-15 6.716-15 15s6.716 15 15 15h128c8.284 0 15-6.716 15-15s-6.716-15-15-15z"/></symbol></svg>