<svg width="94" height="124" viewBox="0 0 94 124" fill="none" xmlns="http://www.w3.org/2000/svg">
<path d="M0 0V124H94V21.2L72.8 0H0ZM74 6.8L87.2 20H74V6.8ZM4 120V4H70V24H90V120H4Z" fill="white"/>
<path d="M82 75H12V79H82V75Z" fill="white"/>
<path d="M82 85H12V89H82V85Z" fill="white"/>
<path d="M82 95H57V99H82V95Z" fill="white"/>
<path d="M47 61.5999C55.7 61.5999 64.4 60.0999 72.7 57.1999L74 56.6999V49.3999L70.9 48.4999V45.5999C70.9 36.5999 65.9 28.3999 58 24.3999V24.1999C58 21.8999 56.1 19.9999 53.8 19.9999H49V19.3999H45V19.9999H40.2C37.9 19.9999 36 21.8999 36 24.1999V24.3999C28.1 28.4999 23.1 36.6999 23.1 45.5999V48.4999L20 49.4999V56.7999L21.3 57.2999C29.6 60.0999 38.3 61.5999 47 61.5999ZM24 52.4999L27.1 51.5999V45.6999C27.1 38.9999 30.5 32.6999 36 29.0999V35.1999H40V24.1999C40 24.0999 40.1 23.9999 40.2 23.9999H45V41.2999H49V23.9999H53.8C53.9 23.9999 54 24.0999 54 24.1999V35.1999H58V29.0999C63.5 32.7999 66.9 38.9999 66.9 45.6999V51.5999L70 52.4999V53.8999C55.1 58.7999 38.9 58.7999 24 53.8999V52.4999Z" fill="white"/>
<path d="M62.2996 48.1001H31.5996V52.1001H62.2996V48.1001Z" fill="white"/>
</svg>
