<svg width="124" height="124" viewBox="0 0 124 124" fill="none" xmlns="http://www.w3.org/2000/svg">
<path d="M62 0H47.5V12C43.8 13.1 40.3 14.5 36.9 16.4L28.4 7.9L7.9 28.4L16.4 36.9C14.5 40.3 13.1 43.8 12 47.5H0V76.5H12C13.1 80.2 14.5 83.7 16.4 87.1L7.9 95.6L28.4 116.1L36.9 107.6C40.3 109.5 43.8 110.9 47.5 112V124H62C96.2 124 124 96.2 124 62C124 27.8 96.2 0 62 0ZM62 120H51.5V108.9L50 108.5C45.7 107.4 41.5 105.7 37.6 103.4L36.3 102.6L28.4 110.5L13.6 95.6L21.5 87.7L20.7 86.4C18.4 82.5 16.7 78.3 15.6 74L15.2 72.5H4V51.5H15.1L15.5 50C16.6 45.7 18.3 41.5 20.6 37.6L21.4 36.3L13.5 28.4L28.3 13.6L36.2 21.5L37.5 20.7C41.4 18.4 45.6 16.7 49.9 15.6L51.4 15.2V4H62C94 4 120 30 120 62C120 94 94 120 62 120Z" fill="white"/>
<path d="M62 90C46.6 90 34 77.4 34 62C34 46.6 46.6 34 62 34V30C44.4 30 30 44.4 30 62C30 79.6 44.4 94 62 94V90Z" fill="white"/>
<path d="M73.25 75H54.1289V71.7383L63.6016 61.4062C64.9688 59.8828 65.9388 58.6133 66.5117 57.5977C67.0977 56.569 67.3906 55.5404 67.3906 54.5117C67.3906 53.1576 67.0065 52.0638 66.2383 51.2305C65.4831 50.3971 64.4609 49.9805 63.1719 49.9805C61.6354 49.9805 60.444 50.4492 59.5977 51.3867C58.7513 52.3242 58.3281 53.6068 58.3281 55.2344H53.582C53.582 53.5026 53.9727 51.9466 54.7539 50.5664C55.5482 49.1732 56.6745 48.0924 58.1328 47.3242C59.6042 46.556 61.2969 46.1719 63.2109 46.1719C65.9714 46.1719 68.1458 46.8685 69.7344 48.2617C71.3359 49.6419 72.1367 51.556 72.1367 54.0039C72.1367 55.4232 71.7331 56.9141 70.9258 58.4766C70.1315 60.026 68.8229 61.7904 67 63.7695L60.0469 71.2109H73.25V75ZM92.918 64.8633H96.4531V68.6719H92.918V75H88.1719V68.6719H75.8867L75.75 65.7812L88.0156 46.5625H92.918V64.8633ZM80.7305 64.8633H88.1719V52.9883L87.8203 53.6133L80.7305 64.8633Z" fill="white"/>
</svg>
