<svg xmlns="http://www.w3.org/2000/svg" height="512" width="512"><path d="M503.22 186.828l-25.041-25.041c-11.697-11.698-30.729-11.696-42.427 0l-52.745 52.745V45c0-24.813-20.187-45-45-45h-293c-24.813 0-45 20.187-45 45v422c0 24.813 20.187 45 45 45h293c24.813 0 45-20.187 45-45V347.967L503.22 229.255c11.697-11.697 11.697-30.73 0-42.427zM323.821 364.251l-45.122 21.058 21.037-45.078 111.975-111.975 24.757 24.756zM353.007 467a15.02 15.02 0 0 1-15 15h-293a15.02 15.02 0 0 1-15-15V45a15.02 15.02 0 0 1 15-15h293a15.02 15.02 0 0 1 15 15v199.532l-79.34 80.616-39.598 84.854a15 15 0 0 0 19.936 19.936l84.854-39.599c3.111-1.452 3.623-2.354 14.148-12.748zm104.806-235.067l-24.89-24.89L456.966 183l25.033 25.049zM80.007 127h224c8.284 0 15-6.716 15-15s-6.716-15-15-15h-224c-8.284 0-15 6.716-15 15s6.716 15 15 15zm0 80h176c8.284 0 15-6.716 15-15s-6.716-15-15-15h-176c-8.284 0-15 6.716-15 15s6.716 15 15 15zm128 50h-128c-8.284 0-15 6.716-15 15s6.716 15 15 15h128c8.284 0 15-6.716 15-15s-6.716-15-15-15z"/></svg>
